# xmcd
#
# Track frame offsets: 
#        150
#        10750
#        20872
#        32898
#        50269
#        63984
#        77591
#        95572
#        110045
#        123228
#        135959
#        151346
#        167671
#        182031
#        195091
#
# Disc length: 2797 seconds
#
# Revision: 0
# Processed by: cddbd v1.5.2PL0 Copyright (c) Steve Scherf et al.
# Submitted via: ExactAudioCopy v0.99pb4
#
DISCID=b70aeb0f
DTITLE=Various Artist - Corridos de Cantina
DYEAR=2005
DGENRE=Norteño
TTITLE0=Originales de San Juan - Parrandero y Que
TTITLE1=Banda San Jose de Mesillas - La Mujer de Demetrio
TTITLE2=Invasores de Nuevo León - Veneno Blanco
TTITLE3=Traileros del Norte - Dinero Manchado
TTITLE4=Coyote y Su Banda Tierra Santa - Gumaro Vasquez
TTITLE5=Leones del Norte - Cachas de Oro
TTITLE6=Explosion Norteña - El Fantasma
TTITLE7=Carlos y José - La Preciosa
TTITLE8=Originales de San Juan - La Bueyada
TTITLE9=Banda San Jose de Mesillas - El Leon de la Sierra
TTITLE10=Invasores de Nuevo León - Juramento Cumplido
TTITLE11=Traileros del Norte - El Corrido de Amado Carrillo
TTITLE12=Coyote y Su Banda Tierra Santa - Los Hermanos Mata
TTITLE13=Explosion Norteña - Sangre en la Disco
TTITLE14=Carlos y José - El Gallo de San Juan
EXTD=CD: EMI 11710 (2005-06-07), UPC 094631171024, BMG D161597.
EXTT0=(Sergio Casarez)
EXTT1=(Pablo J. Chávez)
EXTT2=(Juan Carlos Estrada)
EXTT3=(Roberto F. Ríos)
EXTT4=(Reynaldo Martínez)
EXTT5=(Nestor Pineda)
EXTT6=(Mario Quintero)
EXTT7=(José García)
EXTT8=(Ildelfonso Moya)
EXTT9=(Fidel Garza)
EXTT10=(Carlos T. Salazar)
EXTT11=(Teodoro Bello)
EXTT12=(Nacho Hernández)
EXTT13=(Paulino Vargas)
EXTT14=(Apolonio Alvarez)
PLAYORDER=
